{"title":"Rango.2011.EXTENDED.BDRip.XVID.AC3.HQ.Hive-CM8","uid":6502307,"size":2030567878,"categoryP":"video","categoryS":"movies","magnet":"?xt=urn:btih:f01d8c7ca4a0dff89ebaf343dd448e119c0040b8&amp;dn=Rango.2011.EXTENDED.BDRip.XVID.AC3.HQ.Hive-CM8&amp;tr=udp%3A%2F%2Ftracker.openbittorrent.com%3A80&amp;tr=udp%3A%2F%2Fopen.demonii.com%3A1337&amp;tr=udp%3A%2F%2Ftracker.coppersurfer.tk%3A6969&amp;tr=udp%3A%2F%2Fexodus.desync.com%3A6969","seeders":0,"leechers":1,"uploader":"sceneline","files":7,"time":1309291157,"description":"- &lt;a href=&quot;\nhttp://www.Speed.Cd&quot; rel=&quot;nofollow&quot; target=&quot;_NEW&quot;&gt;\nhttp://www.Speed.Cd&lt;/a&gt; \n       &lt;a href=&quot;\nhttp://www.Speed.Cd&quot; rel=&quot;nofollow&quot; target=&quot;_NEW&quot;&gt;\nhttp://www.Speed.Cd&lt;/a&gt;       the fast  and The Hottest Private Tracker on the net\n\n(((--Registration will be open on june every weekend--)))\n\nPlease Seed back to make the speed Faster!!!\n\n------------------nfo--------------------------\n-[img]http://img862.imageshack.us/img862/6051/21717front.jpg[/img]\n\n\n[color=blue][size=5][b]Rango.2011.EXTENDED.BDRip.XVID.AC3.HQ.Hive-CM8[/b][/size][/color]\n\n\n[b]Thx Hive\n\n\nCM8 Doing It Right The First Time :D\n\n\nSource: Bluray\n\nVideo got very nice, no pixelation even in fast action scenes, check samples\n\nVideo: 720x304 @bitrate 2000 2pass\nAudio: English DTS to AC3 5.1 @384\nSample: yes included 2, quality and action\nSubs: yes english in srt /subs[/b]\n\n\n[url]http://www.imdb.com/title/tt1192628/[/url]\n\n\nGeneral\nComplete name                    : Rango.2011.EXTENDED.BDRip.XVID.AC3.HQ.Hive-CM8.avi\nFormat                           : AVI\nFormat/Info                      : Audio Video Interleave\nFile size                        : 1.87 GiB\nDuration                         : 1h 51mn\nOverall bit rate                 : 2 394 Kbps\nWriting application              : Nandub v1.0rc2\nWriting library                  : Nandub build 1853/release\n\nVideo\nID                               : 0\nFormat                           : MPEG-4 Visual\nFormat profile                   : Advanced Simple@L5\nFormat settings, BVOP            : 1\nFormat settings, QPel            : Yes\nFormat settings, GMC             : No warppoints\nFormat settings, Matrix          : Default (H.263)\nMuxing mode                      : Packed bitstream\nCodec ID                         : XVID\nCodec ID/Hint                    : XviD\nDuration                         : 1h 51mn\nBit rate                         : 2 000 Kbps\nWidth                            : 720 pixels\nHeight                           : 304 pixels\nDisplay aspect ratio             : 2.40:1\nFrame rate                       : 23.976 fps\nColor space                      : YUV\nChroma subsampling               : 4:2:0\nBit depth                        : 8 bits\nScan type                        : Progressive\nCompression mode                 : Lossy\nBits/(Pixel*Frame)               : 0.381\nStream size                      : 1.56 GiB (84%)\nWriting library                  : XviD 1.2.1 (UTC 2008-12-04)\n\nAudio\nID                               : 1\nFormat                           : AC-3\nFormat/Info                      : Audio Coding 3\nMode extension                   : CM (complete main)\nCodec ID                         : 2000\nDuration                         : 1h 51mn\nBit rate mode                    : Constant\nBit rate                         : 384 Kbps\nChannel(s)                       : 6 channels\nChannel positions                : Front: L C R, Side: L R, LFE\nSampling rate                    : 48.0 KHz\nBit depth                        : 16 bits\nCompression mode                 : Lossy\nStream size                      : 307 MiB (16%)\nAlignment                        : Split accross interleaves\nInterleave, duration             : 42 ms (1.00 video frame)\nInterleave, preload duration     : 500 ms\n\n\nJohnny Depp        ...   Rango / Lars (voice)\nIsla Fisher        ...   Beans (voice)\nAbigail Breslin    ...   Priscilla (voice)\nNed Beatty         ...   Mayor (voice)\nAlfred Molina      ...   Roadkill (voice)\nBill Nighy         ...   Rattlesnake Jake (voice)\nHarry Dean Stanton ...   Balthazar (voice)\nTimothy Olyphant   ...   Spirit of the West (voice)\nRay Winstone       ...   Bad Bill (voice)\n\n\nRango is an ordinary chameleon who accidentally winds up in\nthe town of Dirt, a lawless outpost in the Wild West in\ndesperate need of a new sheriff.\n\n\n[img]http://img824.imageshack.us/img824/600/rarrarararararararaa.png[/img]\n[img]http://img220.imageshack.us/img220/7091/92860185.png[/img]\n[img]http://img191.imageshack.us/img191/3233/rarab.png[/img]\n[img]http://img807.imageshack.us/img807/7789/rarraa.png[/img]\n[img]http://img20.imageshack.us/img20/8904/rarraraa.png[/img]\n[img]http://img703.imageshack.us/img703/8191/rarrararaa.png[/img]\n[img]http://img535.imageshack.us/img535/6978/rarrarararaa.png[/img]\n[img]http://img862.imageshack.us/img862/7900/rarrararararaa.png[/img]\n[img]http://img834.imageshack.us/img834/3553/rarrarararararaa.png[/img]\n[img]http://img707.imageshack.us/img707/2018/rarrararararararaa.png[/img]\n[img]http://img845.imageshack.us/img845/2456/rarrararararararararaa.png[/img]\n\n\n\nGreetz\n\nViSiON,SANTi,MAGNET,THC,T0XiC,LKRG,IMAGiNE,WBZ,FLAWL3SS,NOVA\nD2U,Vik,Rapeseed,SAFC,goldadvance,MEMORY100,KaN1vE,Unevano,\nPinnz,Wayne,Mr Hive and all P2P groups \nGreat Work Guys :D\n\nFYS\n\n&lt;a class=&quot;__cf_email__&quot; href=&quot;/cdn-cgi/l/email-protection&quot; data-cfemail=&quot;d99a94e199b1acaab1b4b8b0b5f7bab6b4&quot;&gt;[email&amp;#160;protected]&lt;/a&gt;&lt;script cf-hash='f9e31' type=&quot;text/javascript&quot;&gt;\n/* &lt;![CDATA[ */!function(){try{var t=&quot;currentScript&quot;in document?document.currentScript:function(){for(var t=document.getElementsByTagName(&quot;script&quot;),e=t.length;e--;)if(t[e].getAttribute(&quot;cf-hash&quot;))return t[e]}();if(t&amp;&amp;t.previousSibling){var e,r,n,i,c=t.previousSibling,a=c.getAttribute(&quot;data-cfemail&quot;);if(a){for(e=&quot;&quot;,r=parseInt(a.substr(0,2),16),n=2;a.length-n;n+=2)i=parseInt(a.substr(n,2),16)^r,e+=String.fromCharCode(i);e=document.createTextNode(e),c.parentNode.replaceChild(e,c)}}}catch(u){}}();/* ]]&gt; */&lt;/script&gt;","torrent":{"xt":"urn:btih:f01d8c7ca4a0dff89ebaf343dd448e119c0040b8","amp;dn":"Rango.2011.EXTENDED.BDRip.XVID.AC3.HQ.Hive-CM8","amp;tr":["udp%3A%2F%2Ftracker.openbittorrent.com%3A80","udp%3A%2F%2Fopen.demonii.com%3A1337","udp%3A%2F%2Ftracker.coppersurfer.tk%3A6969","udp%3A%2F%2Fexodus.desync.com%3A6969"],"infoHash":"f01d8c7ca4a0dff89ebaf343dd448e119c0040b8","infoHashBuffer":{"type":"Buffer","data":[240,29,140,124,164,160,223,248,158,186,243,67,221,68,142,17,156,0,64,184]},"announce":[],"urlList":[]}}